#!OML:ASF I:\Actors\actors\Patient Classification 2\Patient 1\Session 1\actor1.ASF
:FULLY-SPECIFIED
:DEGREES
404
root -0.832384 18.5779 5.30394 -4.92912 2.08118 -0.3017
lowerback 12.3768 1.56291 10.8715
upperback 4.1869 3.51606 4.66915
thorax -2.14093 1.76951 -1.66546
lowerneck -7.52554 -7.31607 -4.25533
upperneck 24.489 -8.87897 -2.55421
head 8.98352 -4.76476 -1.03085
rclavicle -1.59028e-015 -3.65764e-014
rhumerus 15.9457 7.92612 -60.9058
rradius 47.9202
rwrist 35.5343
rhand -21.1913 -43.5141
rfingers 7.12502
rthumb 5.18967 -73.4305
lclavicle -1.59028e-015 -3.65764e-014
lhumerus -47.7783 -14.8263 100.936
lradius 78.8372
lwrist 22.817
lhand -10.3166 -18.6885
lfingers 7.12502
lthumb 15.6788 10.6963
rfemur 13.1954 1.05492 15.326
rtibia -1.11319e-014
rfoot -17.7026 -14.525
rtoes -8.2585
lfemur -3.46572 -3.53227 -14.1281
ltibia 25.2859
lfoot -18.2107 6.47022
ltoes -58.0958
405
root -0.833662 18.5788 5.30559 -4.88481 1.90095 -0.278077
lowerback 12.4729 1.62054 10.9483
upperback 4.22762 3.6111 4.69404
thorax -2.13624 1.81758 -1.69583
lowerneck -7.19488 -7.11715 -3.9029
upperneck 23.313 -8.60178 -2.88717
head 8.47937 -4.63711 -1.11791
rclavicle -3.61788e-014 -1.90833e-014
rhumerus 16.2047 7.88284 -60.9251
rradius 48.0429
rwrist 29.5243
rhand -19.1665 -45.4112
rfingers 7.12502
rthumb 7.14443 -75.2706
lclavicle -3.61788e-014 -1.90833e-014
lhumerus -47.6993 -14.829 100.988
lradius 78.8413
lwrist 22.9289
lhand -10.3911 -18.6074
lfingers 7.12502
lthumb 15.607 10.783
rfemur 13.1033 1.23194 15.3182
rtibia 2.8625e-014
rfoot -17.6579 -14.5573
rtoes -8.16927
lfemur -3.47801 -3.65973 -14.1838
ltibia 25.2969
lfoot -18.2971 6.73013
ltoes -58.0931
406
root -0.82112 18.5815 5.29625 -4.72922 1.39851 -0.281685
lowerback 12.6795 1.74704 11.2486
upperback 4.23444 3.8405 4.6663
thorax -2.19261 1.92836 -1.9256
lowerneck -6.92066 -6.89006 -3.54415
upperneck 22.0673 -8.29337 -3.2148
head 7.97282 -4.49047 -1.20303
rclavicle -1.59028e-015 2.06736e-014
rhumerus 16.4245 7.85453 -60.9914
rradius 48.4303
rwrist 21.8657
rhand -17.2402 -47.8151
rfingers 7.12502
rthumb 9.00355 -77.603
lclavicle -1.59028e-015 2.06736e-014
lhumerus -47.5217 -14.7933 101.01
lradius 78.7956
lwrist 23.0272
lhand -10.4252 -18.5538
lfingers 7.12502
lthumb 15.5741 10.8391
rfemur 12.749 1.72642 15.3107
rtibia 2.22639e-014
rfoot -17.491 -14.7003
rtoes -8.47659
lfemur -3.6241 -3.71557 -14.2684
ltibia 25.3318
lfoot -18.4274 7.22146
ltoes -57.9737
407
root -0.828688 18.5828 5.30233 -4.67707 1.41319 -0.304967
lowerback 12.7376 1.7344 11.316
upperback 4.24065 3.84084 4.68403
thorax -2.21388 1.92767 -1.94613
lowerneck -6.59927 -6.64933 -3.20401
upperneck 20.7761 -7.99329 -3.44775
head 7.45859 -4.33733 -1.25411
rclavicle 2.74323e-014 1.43125e-014
rhumerus 16.5093 7.90096 -61.1163
rradius 49.0299
rwrist 13.7194
rhand -16.4679 -49.7952
rfingers 7.12502
rthumb 9.74873 -79.5496
lclavicle 2.74323e-014 1.43125e-014
lhumerus -47.4327 -14.7362 101.004
lradius 78.7941
lwrist 23.1051
lhand -10.4966 -18.4694
lfingers 7.12502
lthumb 15.5054 10.9289
rfemur 12.7124 1.69952 15.3641
rtibia 0
rfoot -17.4959 -14.7356
rtoes -8.58754
lfemur -3.68631 -3.71084 -14.2106
ltibia 25.3679
lfoot -18.3911 7.19237
ltoes -57.9264
408
root -0.835211 18.5849 5.30817 -4.58781 1.48833 -0.30559
lowerback 12.7697 1.70295 11.4113
upperback 4.20726 3.81913 4.66895
thorax -2.26134 1.91391 -2.01349
lowerneck -6.24196 -6.42004 -2.88534
upperneck 19.4668 -7.72147 -3.6384
head 6.94475 -4.19284 -1.29143
rclavicle 8.74653e-015 -7.95139e-015
rhumerus 16.4635 7.87547 -61.3376
rradius 49.7234
rwrist 7.20277
rhand -15.5041 -51.4088
rfingers 7.12502
rthumb 10.6786 -81.1175
lclavicle 8.74653e-015 -7.95139e-015
lhumerus -47.4199 -14.7114 101.008
lradius 78.8058
lwrist 23.2045
lhand -10.5791 -18.3598
lfingers 7.12502
lthumb 15.426 11.0446
rfemur 12.6467 1.61322 15.3802
rtibia -3.33958e-014
rfoot -17.469 -14.7798
rtoes -8.69807
lfemur -3.78746 -3.73296 -14.1781
ltibia 25.3897
lfoot -18.3751 7.13388
ltoes -57.8581
409
root -0.841598 18.5862 5.31531 -4.49567 1.55013 -0.304578
lowerback 12.7592 1.67293 11.4955
upperback 4.2055 3.78831 4.66453
thorax -2.2544 1.89923 -2.05935
lowerneck -5.97126 -6.2041 -2.58504
upperneck 18.2019 -7.45944 -3.86692
head 6.46839 -4.05577 -1.34584
rclavicle -2.26615e-014 3.49861e-014
rhumerus 16.5134 7.61757 -61.5859
rradius 50.1491
rwrist 4.35215
rhand -16.6675 -51.3337
rfingers 7.12502
rthumb 9.55618 -81.097
lclavicle -2.26615e-014 3.49861e-014
lhumerus -47.3596 -14.7659 101.031
lradius 78.7804
lwrist 23.4149
lhand -10.6296 -18.3298
lfingers 7.12502
lthumb 15.3772 11.0784
rfemur 12.5808 1.54051 15.3938
rtibia 4.6118e-014
rfoot -17.4508 -14.7932
rtoes -8.88105
lfemur -3.86502 -3.75242 -14.1509
ltibia 25.3654
lfoot -18.366 7.08743
ltoes -57.8625
410
root -0.848 18.5865 5.3228 -4.41086 1.59145 -0.259891
lowerback 12.7377 1.65478 11.4868
upperback 4.21887 3.75904 4.67573
thorax -2.23323 1.88619 -2.03774
lowerneck -5.70838 -5.99751 -2.3499
upperneck 17.0004 -7.20987 -4.07014
head 6.02443 -3.92506 -1.38717
rclavicle -4.6118e-014 3.18055e-014
rhumerus 16.7331 7.19845 -61.7513
rradius 50.0922
rwrist 5.01895
rhand -15.915 -51.5646
rfingers 7.12502
rthumb 10.2821 -81.2932
lclavicle -4.6118e-014 3.18055e-014
lhumerus -47.2966 -14.8455 101.071
lradius 78.7691
lwrist 23.6329
lhand -10.6364 -18.309
lfingers 7.12502
lthumb 15.3708 11.0997
rfemur 12.5227 1.49302 15.3615
rtibia 4.6118e-014
rfoot -17.5022 -14.7814
rtoes -8.92105
lfemur -3.92731 -3.75268 -14.1746
ltibia 25.3359
lfoot -18.3716 7.06069
ltoes -57.9355
411
root -0.85323 18.5874 5.33109 -4.32349 1.63306 -0.215119
lowerback 12.6699 1.65746 11.4922
upperback 4.22508 3.75203 4.67781
thorax -2.1901 1.88512 -2.03421
lowerneck -5.37705 -5.83164 -2.11116
upperneck 15.8402 -7.02 -4.28646
head 5.58617 -3.82158 -1.43766
rclavicle -1.19271e-014 7.95139e-015
rhumerus 16.9593 6.69121 -61.8438
rradius 49.7893
rwrist 7.83795
rhand -17.1796 -50.4083
rfingers 7.12502
rthumb 9.06202 -80.1936
lclavicle -1.19271e-014 7.95139e-015
lhumerus -47.2629 -14.9552 101.126
lradius 78.7732
lwrist 23.6904
lhand -10.5712 -18.1987
lfingers 7.12502
lthumb 15.4336 11.2052
rfemur 12.4663 1.44547 15.3264
rtibia 2.38542e-014
rfoot -17.5502 -14.7697
rtoes -8.99886
lfemur -3.97078 -3.7731 -14.204
ltibia 25.2782
lfoot -18.3813 7.05961
ltoes -57.986
412
root -0.857018 18.5884 5.34019 -4.24373 1.66035 -0.230421
lowerback 12.5799 1.63903 11.5588
upperback 4.23962 3.72028 4.68278
thorax -2.1245 1.87341 -2.05644
lowerneck -5.14136 -5.69231 -1.7972
upperneck 14.8143 -6.85391 -4.62802
head 5.20288 -3.7341 -1.54814
rclavicle 2.74323e-014 -7.95139e-015
rhumerus 17.2221 6.39505 -61.8425
rradius 49.4798
rwrist 11.3003
rhand -16.6316 -50.0905
rfingers 7.12502
rthumb 9.59079 -79.8522
lclavicle 2.74323e-014 -7.95139e-015
lhumerus -47.1857 -15.0179 101.143
lradius 78.7406
lwrist 23.5948
lhand -10.4236 -18.1555
lfingers 7.12502
lthumb 15.5757 11.2373
rfemur 12.4198 1.40769 15.3548
rtibia -3.18055e-014
rfoot -17.5905 -14.723
rtoes -8.9556
lfemur -3.99285 -3.79691 -14.1716
ltibia 25.2091
lfoot -18.3618 7.07321
ltoes -58.0275
413
root -0.879231 18.5877 5.36356 -4.33161 2.21986 -0.289457
lowerback 12.3716 1.44278 11.3812
upperback 4.31026 3.40713 4.78234
thorax -1.99046 1.7274 -1.80592
lowerneck -4.98538 -5.53145 -1.5593
upperneck 13.9192 -6.65755 -4.90616
head 4.88315 -3.63213 -1.63237
rclavicle -8.34896e-015 -3.02153e-014
rhumerus 17.5586 6.39547 -61.6863
rradius 49.1865
rwrist 14.5387
rhand -15.0114 -50.2151
rfingers 7.12502
rthumb 11.1538 -79.8987
lclavicle -8.34896e-015 -3.02153e-014
lhumerus -47.0765 -15.0066 101.129
lradius 78.6816
lwrist 23.4897
lhand -10.2998 -18.2371
lfingers 7.12502
lthumb 15.695 11.1463
rfemur 12.7546 0.837044 15.4703
rtibia 1.59028e-015
rfoot -17.8106 -14.5382
rtoes -8.49213
lfemur -3.87337 -3.90181 -13.9856
ltibia 25.1316
lfoot -18.2272 6.58265
ltoes -58.0075
414
root -0.890958 18.5872 5.37276 -4.35834 2.34099 -0.281863
lowerback 12.4189 1.38162 11.3018
upperback 4.32193 3.32517 4.81358
thorax -2.02037 1.68548 -1.72165
lowerneck -4.75771 -5.38245 -1.40642
upperneck 13.0433 -6.49117 -5.04611
head 4.56756 -3.53856 -1.66179
rclavicle -1.59028e-015 5.88403e-014
rhumerus 17.7823 6.45023 -61.4238
rradius 49.0068
rwrist 17.1326
rhand -14.1358 -49.921
rfingers 7.12502
rthumb 11.9982 -79.5571
lclavicle -1.59028e-015 5.88403e-014
lhumerus -47.0164 -15.0979 101.133
lradius 78.635
lwrist 23.5201
lhand -10.2563 -18.2598
lfingers 7.12502
lthumb 15.7369 11.1204
rfemur 12.858 0.710014 15.505
rtibia 2.70347e-014
rfoot -17.8353 -14.528
rtoes -8.6001
lfemur -3.80267 -3.84841 -13.9288
ltibia 25.0709
lfoot -18.1808 6.40142
ltoes -58.0175
415
root -0.89477 18.5861 5.37479 -4.36136 2.20436 -0.229385
lowerback 12.5988 1.40251 11.3036
upperback 4.31294 3.38053 4.79666
thorax -2.12095 1.70748 -1.75495
lowerneck -4.57818 -5.29274 -1.15098
upperneck 11.9237 -6.42296 -5.19857
head 4.63872 -3.47087 -1.90906
rclavicle 2.82274e-014 -2.54444e-014
rhumerus 17.8231 7.13952 -60.9399
rradius 49.1135
rwrist 17.2867
rhand -16.1826 -49.4113
rfingers 7.12502
rthumb 10.024 -79.1525
lclavicle 2.82274e-014 -2.54444e-014
lhumerus -46.9898 -15.2516 101.153
lradius 78.5878
lwrist 23.5518
lhand -10.2324 -18.2114
lfingers 7.12502
lthumb 15.7598 11.167
rfemur 12.8498 0.847208 15.479
rtibia -3.33958e-014
rfoot -17.7783 -14.5742
rtoes -8.93203
lfemur -3.73492 -3.7219 -13.9669
ltibia 25.0202
lfoot -18.166 6.4474
ltoes -58.1181
416
root -0.895176 18.5855 5.37839 -4.3602 2.11069 -0.202351
lowerback 12.7036 1.39145 11.3362
upperback 4.32319 3.38463 4.79643
thorax -2.16451 1.70761 -1.77743
lowerneck -4.45644 -5.20955 -0.948041
upperneck 11.3385 -6.32763 -5.45106
head 4.38706 -3.42005 -1.99704
rclavicle 5.92378e-014 5.725e-014
rhumerus 17.9366 7.44117 -60.6725
rradius 49.1158
rwrist 18.5049
rhand -16.8896 -48.81
rfingers 7.12502
rthumb 9.3419 -78.583
lclavicle 5.92378e-014 5.725e-014
lhumerus -46.9505 -15.3138 101.17
lradius 78.5907
lwrist 23.5046
lhand -10.2366 -18.241
lfingers 7.12502
lthumb 15.7558 11.1377
rfemur 12.8428 0.942222 15.4599
rtibia -3.02153e-014
rfoot -17.7916 -14.5557
rtoes -8.89344
lfemur -3.68525 -3.67567 -13.9928
ltibia 25.0015
lfoot -18.1816 6.48687
ltoes -58.1685
417
root -0.894498 18.5854 5.38321 -4.34892 2.07945 -0.195769
lowerback 12.7156 1.35366 11.3782
upperback 4.36298 3.33824 4.81824
thorax -2.13221 1.68743 -1.77075
lowerneck -4.43002 -5.10043 -0.925518
upperneck 10.8514 -6.19666 -5.51397
head 4.20643 -3.35152 -1.9963
rclavicle 3.1408e-014 7.4743e-014
rhumerus 18.1262 7.4848 -60.5537
rradius 49.0437
rwrist 20.4879
rhand -16.95 -48.1379
rfingers 7.12502
rthumb 9.28362 -77.9135
lclavicle 3.1408e-014 7.4743e-014
lhumerus -46.8446 -15.3011 101.184
lradius 78.6394
lwrist 23.5015
lhand -10.3142 -18.3384
lfingers 7.12502
lthumb 15.681 11.0462
rfemur 12.8374 0.973175 15.454
rtibia -6.36111e-015
rfoot -17.8256 -14.5273
rtoes -8.83089
lfemur -3.67677 -3.6746 -14.0039
ltibia 25.0225
lfoot -18.2119 6.50731
ltoes -58.202
418
root -0.887976 18.5866 5.38284 -4.23994 1.88306 -0.124944
lowerback 12.7184 1.38747 11.4417
upperback 4.37943 3.3869 4.78782
thorax -2.10438 1.71335 -1.84299
lowerneck -4.46291 -5.00873 -0.859608
upperneck 10.4629 -6.0827 -5.63061
head 4.07098 -3.29364 -2.0286
rclavicle 4.29375e-014 -7.95139e-015
rhumerus 18.3181 7.49252 -60.4774
rradius 48.9326
rwrist 22.1276
rhand -17.2966 -47.4853
rfingers 7.12502
rthumb 8.94916 -77.2755
lclavicle 4.29375e-014 -7.95139e-015
lhumerus -46.6972 -15.3037 101.17
lradius 78.6321
lwrist 23.5037
lhand -10.396 -18.3679
lfingers 7.12502
lthumb 15.6023 11.0229
rfemur 12.6684 1.17044 15.3666
rtibia -2.38542e-014
rfoot -17.7744 -14.5687
rtoes -9.03026
lfemur -3.77508 -3.66187 -14.1165
ltibia 25.0522
lfoot -18.2729 6.67386
ltoes -58.1282
